<svg width="16" height="16" viewBox="0 0 16 16" fill="none" xmlns="http://www.w3.org/2000/svg">
<path d="M10.6667 7.99998C10.6667 9.47274 9.47276 10.6666 8 10.6666C6.52724 10.6666 5.33333 9.47274 5.33333 7.99998C5.33333 6.52722 6.52724 5.33331 8 5.33331C9.47276 5.33331 10.6667 6.52722 10.6667 7.99998ZM10.6667 7.99998L10.6667 8.99996C10.6667 9.44199 10.8423 9.86591 11.1548 10.1785C11.4674 10.491 11.8913 10.6666 12.3333 10.6666C12.7754 10.6666 13.1993 10.491 13.5118 10.1785C13.8244 9.86591 14 9.44199 14 8.99996V7.99996C14.0017 6.71069 13.588 5.45519 12.8203 4.41942C12.0525 3.38366 10.9716 2.62273 9.73759 2.24936C8.50357 1.87599 7.18211 1.91004 5.96896 2.34647C4.7558 2.78289 3.7155 3.59848 3.00214 4.67241C2.28878 5.74634 1.94031 7.02149 2.00837 8.30895C2.07642 9.59642 2.55737 10.8277 3.37997 11.8205C4.20257 12.8132 5.32306 13.5146 6.57546 13.8207C7.82786 14.1268 9.14555 14.0213 10.3333 13.52" stroke="#CED4DA" stroke-width="2" stroke-linecap="round" stroke-linejoin="round"/>
</svg>
