<svg width="17" height="16" viewBox="0 0 17 16" fill="none" xmlns="http://www.w3.org/2000/svg">
<g clip-path="url(#clip0_2_1531)">
<path d="M8.50103 2C9.77969 2 10.8477 2.9 11.1077 4.10067C11.7904 3.9159 12.5186 4.00992 13.1321 4.36205C13.7455 4.71418 14.1939 5.29558 14.3787 5.97833C14.5635 6.66109 14.4694 7.38928 14.1173 8.00271C13.7652 8.61614 13.1838 9.06457 12.501 9.24933V14H4.50103V9.24933C4.16296 9.15776 3.84624 9.00049 3.56895 8.78652C3.29166 8.57254 3.05924 8.30604 2.88494 8.00224C2.71065 7.69844 2.59789 7.36328 2.55313 7.0159C2.50836 6.66853 2.53245 6.31573 2.62402 5.97767C2.7156 5.6396 2.87287 5.32288 3.08684 5.04559C3.30082 4.76831 3.56732 4.53588 3.87112 4.36158C4.17492 4.18729 4.51008 4.07454 4.85746 4.02977C5.20483 3.985 5.55763 4.00909 5.89569 4.10067C6.02492 3.50571 6.35383 2.97289 6.82779 2.59074C7.30175 2.20859 7.8922 2.00013 8.50103 2Z" stroke="#333333" stroke-linecap="round" stroke-linejoin="round"/>
<path d="M4.60938 11.338L12.502 11.332" stroke="#333333" stroke-linecap="round" stroke-linejoin="round"/>
</g>
<defs>
<clipPath id="clip0_2_1531">
<rect width="16" height="16" fill="white" transform="translate(0.5)"/>
</clipPath>
</defs>
</svg>
