<svg width="16" height="16" viewBox="0 0 16 16" fill="none" xmlns="http://www.w3.org/2000/svg">
<g clip-path="url(#clip0_2_2069)">
<path fill-rule="evenodd" clip-rule="evenodd" d="M12.5637 4.30093C12.8032 4.06141 12.8032 3.67307 12.5637 3.43355C12.3242 3.19403 11.9358 3.19403 11.6964 3.43355L7.99667 7.13319L4.29703 3.43355C4.0575 3.19403 3.66916 3.19403 3.42964 3.43355C3.19012 3.67307 3.19012 4.06141 3.42964 4.30093L7.12929 8.00058L3.42964 11.7002C3.19012 11.9398 3.19012 12.3281 3.42964 12.5676C3.66916 12.8071 4.0575 12.8071 4.29703 12.5676L7.99667 8.86796L11.6964 12.5676C11.9358 12.8071 12.3242 12.8071 12.5637 12.5676C12.8032 12.3281 12.8032 11.9398 12.5637 11.7002L8.86405 8.00058L12.5637 4.30093Z" fill="#868E96"/>
</g>
<defs>
<clipPath id="clip0_2_2069">
<rect width="16" height="16" fill="white"/>
</clipPath>
</defs>
</svg>
